<svg version="1.1" xmlns="http://www.w3.org/2000/svg" viewBox="0 0 714.5112408122334 636.4159193489463" width="714.5112408122334" height="636.4159193489463" class="excalidraw-svg">
  <!-- svg-source:excalidraw -->
  
  <defs>
    <style class="style-fonts">
      @font-face {
        font-family: "Virgil";
        src: url("https://excalidraw.com/Virgil.woff2");
      }
      @font-face {
        font-family: "Cascadia";
        src: url("https://excalidraw.com/Cascadia.woff2");
      }
      @font-face {
        font-family: "Assistant";
        src: url("https://excalidraw.com/Assistant-Regular.woff2");
      }
    </style>
    
  </defs>
  <rect x="0" y="0" width="714.5112408122334" height="636.4159193489463" fill="#ffffff"/><g stroke-linecap="round" transform="translate(203.60731384799527 89.02301609371807) rotate(0 20.221596098329684 161.77276878663744)"><path d="M0 0 C0 0, 0 0, 0 0 M0 0 C0 0, 0 0, 0 0 M-0.26 6.4 C1.1 5.46, 2.33 4.08, 4.99 0.36 M-0.26 6.4 C1.24 4.81, 2.78 2.72, 4.99 0.36 M0.13 12.04 C1.62 9.69, 4.57 4.71, 10.63 -0.03 M0.13 12.04 C3.78 8.37, 7.17 5.28, 10.63 -0.03 M-0.13 18.44 C4.1 14.88, 7.98 8.59, 15.62 0.33 M-0.13 18.44 C6.44 11, 12 4.59, 15.62 0.33 M0.27 24.08 C6.54 14.52, 13.52 9.23, 21.26 -0.07 M0.27 24.08 C4.21 19.93, 9.01 13.66, 21.26 -0.07 M0 30.48 C6.47 26.18, 10.81 20.21, 26.25 0.29 M0 30.48 C6.31 23.3, 11.79 17.32, 26.25 0.29 M-0.26 36.88 C8.34 30.09, 12.85 20.17, 31.89 -0.1 M-0.26 36.88 C7.23 29.17, 13.11 19.49, 31.89 -0.1 M0.14 42.52 C7.4 31.94, 15.1 24.69, 36.88 0.26 M0.14 42.52 C9.83 32.05, 18.8 22.74, 36.88 0.26 M-0.12 48.92 C11.92 36.63, 19.33 26.73, 40.55 2.13 M-0.12 48.92 C16.61 30.5, 32.99 11.8, 40.55 2.13 M0.27 54.56 C9.22 45.47, 20.55 32.27, 40.95 7.77 M0.27 54.56 C9.97 43.4, 20.48 30.09, 40.95 7.77 M0.01 60.96 C16.39 43.22, 29.53 26.91, 40.69 14.17 M0.01 60.96 C11.14 47.07, 22.56 34.5, 40.69 14.17 M-0.25 67.36 C7.66 57.95, 15.61 47.99, 41.08 19.81 M-0.25 67.36 C13.9 50.39, 28.11 34.6, 41.08 19.81 M0.14 73 C13.57 58.6, 25.36 42.97, 40.82 26.21 M0.14 73 C10.04 61.64, 20.07 49.64, 40.82 26.21 M-0.12 79.4 C10.54 66.87, 22.2 52.54, 40.56 32.61 M-0.12 79.4 C14.18 63.93, 27.8 47.51, 40.56 32.61 M0.28 85.04 C12.56 71.95, 23.94 57.19, 40.95 38.25 M0.28 85.04 C14.56 68.22, 29.68 50.69, 40.95 38.25 M0.01 91.44 C14.99 77.4, 28.92 58.64, 40.69 44.65 M0.01 91.44 C15.51 74.83, 30.3 57.75, 40.69 44.65 M-0.25 97.84 C10.29 89.74, 17.75 78.96, 41.08 50.29 M-0.25 97.84 C13.13 82.36, 26.64 67.18, 41.08 50.29 M0.15 103.48 C10.85 92.32, 18.13 83.61, 40.82 56.69 M0.15 103.48 C11.19 92.38, 19.85 81.46, 40.82 56.69 M-0.11 109.88 C13.16 95.67, 27.93 78.23, 40.56 63.09 M-0.11 109.88 C13.89 93.53, 27.27 78.12, 40.56 63.09 M0.28 115.52 C13.81 99.87, 28.08 85, 40.96 68.73 M0.28 115.52 C12.58 102.38, 25.21 87.97, 40.96 68.73 M0.02 121.92 C9.58 113.35, 17.63 100.6, 40.69 75.13 M0.02 121.92 C8.77 111.04, 16.7 101.55, 40.69 75.13 M-0.24 128.32 C11.11 113.59, 21.8 101.23, 41.09 80.77 M-0.24 128.32 C9.03 118.9, 18.8 107.11, 41.09 80.77 M0.15 133.96 C12.54 117.01, 26.13 105.57, 40.83 87.17 M0.15 133.96 C11.01 121.97, 20.77 108.92, 40.83 87.17 M-0.11 140.36 C14.02 121.85, 31.62 103.97, 40.57 93.56 M-0.11 140.36 C13.32 125.05, 26.27 109.98, 40.57 93.56 M0.29 146 C10.16 135.16, 19 120.81, 40.96 99.21 M0.29 146 C9.55 135.6, 18.78 125.65, 40.96 99.21 M0.02 152.4 C14.28 135.83, 28.65 120.88, 40.7 105.61 M0.02 152.4 C13.69 135.26, 29.08 120.42, 40.7 105.61 M-0.24 158.8 C11.4 145.69, 22.83 131.13, 41.09 111.25 M-0.24 158.8 C14.48 142.86, 27.67 127.16, 41.09 111.25 M0.16 164.44 C7.03 155.35, 16.43 145.36, 40.83 117.65 M0.16 164.44 C10.06 154.05, 17.93 143.31, 40.83 117.65 M-0.1 170.84 C11.79 157.6, 21.31 144.68, 40.57 124.04 M-0.1 170.84 C10.29 158.71, 21.46 145.98, 40.57 124.04 M0.29 176.48 C11.34 162.01, 24.31 149.44, 40.97 129.69 M0.29 176.48 C11.86 163.02, 23.35 150.06, 40.97 129.69 M0.03 182.88 C11.07 170.88, 23.21 157.97, 40.7 136.09 M0.03 182.88 C13.61 167.36, 28.02 149.61, 40.7 136.09 M-0.23 189.27 C11.82 175.12, 24.6 160.28, 41.1 141.73 M-0.23 189.27 C12.08 174.31, 25.22 160.1, 41.1 141.73 M0.16 194.92 C10.14 184.7, 17.09 173.57, 40.84 148.13 M0.16 194.92 C16.16 176.17, 31.02 157.78, 40.84 148.13 M-0.1 201.32 C11.19 189.81, 20.68 178.82, 40.58 154.52 M-0.1 201.32 C9.16 190.56, 20.07 179.26, 40.58 154.52 M0.3 206.96 C15.49 189.14, 33.2 170.05, 40.97 160.17 M0.3 206.96 C12.16 193.72, 22.79 182.46, 40.97 160.17 M0.03 213.36 C10.47 200.03, 21.01 189.09, 40.71 166.56 M0.03 213.36 C11.33 199.42, 23.58 187.29, 40.71 166.56 M-0.23 219.75 C10.02 207.56, 25.37 193.14, 41.1 172.21 M-0.23 219.75 C11.58 205.54, 23.88 191.67, 41.1 172.21 M0.17 225.4 C17.49 208.06, 33.67 186.71, 40.84 178.61 M0.17 225.4 C9.37 215.82, 18.8 205.18, 40.84 178.61 M-0.09 231.8 C13.39 218.27, 23.55 203, 40.58 185 M-0.09 231.8 C9.34 219.74, 20.61 208.24, 40.58 185 M0.3 237.44 C13.08 220.28, 25.16 204.9, 40.98 190.65 M0.3 237.44 C10.26 224.86, 21.44 212.8, 40.98 190.65 M0.04 243.84 C13.56 229.03, 26.44 211.28, 40.71 197.04 M0.04 243.84 C15.66 227.41, 29.95 209.95, 40.71 197.04 M-0.22 250.23 C10.8 234.93, 24.86 222.81, 41.11 202.69 M-0.22 250.23 C15.16 231.87, 33.4 211.61, 41.11 202.69 M0.17 255.88 C14.58 239.12, 31.66 222.05, 40.85 209.08 M0.17 255.88 C16.6 237.7, 31.57 218.9, 40.85 209.08 M-0.09 262.27 C9.42 252.63, 16.04 239.17, 40.59 215.48 M-0.09 262.27 C11.63 249.73, 23.68 236.24, 40.59 215.48 M0.3 267.92 C16.92 249.28, 32.97 233.3, 40.98 221.13 M0.3 267.92 C9.26 258.18, 18.42 246, 40.98 221.13 M0.04 274.32 C13.73 257.8, 26.73 244.28, 40.72 227.52 M0.04 274.32 C13.36 259.14, 25.41 244.18, 40.72 227.52 M-0.22 280.71 C16.84 262.59, 31.77 245.08, 41.11 233.17 M-0.22 280.71 C15.87 263.99, 31.16 246.08, 41.11 233.17 M0.18 286.36 C10.37 275.32, 19.37 263.41, 40.85 239.56 M0.18 286.36 C14.66 268.43, 30.87 251.49, 40.85 239.56 M-0.08 292.75 C13.91 279.47, 23.36 264.58, 40.59 245.96 M-0.08 292.75 C10.96 280.69, 21.01 268.26, 40.59 245.96 M0.31 298.4 C14.21 285.14, 26.76 267.01, 40.99 251.61 M0.31 298.4 C13.13 284.03, 23.8 270.37, 40.99 251.61 M0.05 304.8 C8.35 293.17, 20.73 282.15, 40.72 258 M0.05 304.8 C12.18 291.3, 22.32 277.34, 40.72 258 M-0.21 311.19 C13.68 293.67, 28.74 277.44, 41.12 263.65 M-0.21 311.19 C13.86 294.06, 29.93 277.36, 41.12 263.65 M0.18 316.84 C16.43 298.42, 31.6 282.07, 40.86 270.04 M0.18 316.84 C9.38 306.42, 16.22 296.83, 40.86 270.04 M-0.08 323.23 C15.21 308.14, 27.91 291.94, 40.6 276.44 M-0.08 323.23 C9.4 312.31, 18.99 302.17, 40.6 276.44 M4.25 324.35 C11.48 316.62, 19.3 305.36, 40.99 282.08 M4.25 324.35 C17.68 309.76, 30.23 295.34, 40.99 282.08 M9.89 323.95 C18.68 314.65, 28.52 303.16, 40.73 288.48 M9.89 323.95 C17.59 316.27, 23.65 308.59, 40.73 288.48 M14.88 324.31 C24.02 315.63, 34.91 302.06, 41.12 294.13 M14.88 324.31 C20.7 317.83, 26.35 312.72, 41.12 294.13 M20.52 323.92 C24.96 316.08, 33.81 312.55, 40.86 300.52 M20.52 323.92 C28.23 314.58, 35.9 305.82, 40.86 300.52 M25.51 324.28 C28.8 320.34, 35.99 314.83, 40.6 306.92 M25.51 324.28 C30.65 317.18, 37.34 310.86, 40.6 306.92 M31.15 323.88 C32.04 320.78, 36.36 319.52, 41 312.56 M31.15 323.88 C33.82 320.39, 37.87 317.32, 41 312.56 M36.14 324.24 C38.38 323.05, 39.21 320.22, 40.73 318.96 M36.14 324.24 C37.56 322.64, 39.63 320.56, 40.73 318.96" stroke="#e03131" stroke-width="0.5" fill="none"/><path d="M0 0 C9.34 2.11, 20.14 0.77, 40.44 0 M0 0 C11.63 -0.21, 22.71 0.04, 40.44 0 M40.44 0 C39.95 74.69, 41.34 152.74, 40.44 323.55 M40.44 0 C41.38 120.32, 40.91 241.21, 40.44 323.55 M40.44 323.55 C22.9 322.47, 10.25 322.67, 0 323.55 M40.44 323.55 C25.86 323.05, 12.69 323.65, 0 323.55 M0 323.55 C-0.26 236.78, -2.65 147.22, 0 0 M0 323.55 C-1.81 243.41, -1.77 162.24, 0 0" stroke="#1e1e1e" stroke-width="1" fill="none"/></g><g stroke-linecap="round" transform="translate(259.2167031184019 283.15033863768303) rotate(0 20.22159609832968 64.70910751465497)"><path d="M0 0 C0 0, 0 0, 0 0 M0 0 C0 0, 0 0, 0 0 M-0.26 6.4 C1.07 5.41, 2.22 2.98, 4.99 0.36 M-0.26 6.4 C1.15 4.54, 2.99 2.45, 4.99 0.36 M0.13 12.04 C1.37 8.35, 5.26 7.39, 10.63 -0.03 M0.13 12.04 C3.66 9.3, 5.32 5.64, 10.63 -0.03 M-0.13 18.44 C7.38 9.41, 14.05 5.5, 15.62 0.33 M-0.13 18.44 C4.68 13.13, 10.52 7.03, 15.62 0.33 M0.27 24.08 C7.06 17.14, 13.05 7.28, 21.26 -0.07 M0.27 24.08 C6.98 15.94, 12.81 7.58, 21.26 -0.07 M0 30.48 C5.56 25.37, 10.12 14.97, 26.25 0.29 M0 30.48 C6.01 23.59, 11.79 15.42, 26.25 0.29 M-0.26 36.88 C5.28 27.9, 12.87 19.6, 31.89 -0.1 M-0.26 36.88 C10.33 22.52, 22 9.92, 31.89 -0.1 M0.14 42.52 C13.51 27.16, 25.24 11.05, 36.88 0.26 M0.14 42.52 C11.2 30.93, 20.41 19.08, 36.88 0.26 M-0.12 48.92 C14.12 32.84, 32.66 11.84, 40.55 2.13 M-0.12 48.92 C11.68 35.73, 21.3 22.43, 40.55 2.13 M0.27 54.56 C17.65 35.32, 30.79 17.41, 40.95 7.77 M0.27 54.56 C12.9 38.78, 27.49 24.83, 40.95 7.77 M0.01 60.96 C11.76 47.39, 25.4 29.74, 40.69 14.17 M0.01 60.96 C11 48.02, 21.53 36.66, 40.69 14.17 M-0.25 67.36 C13.91 50.6, 30.47 33.07, 41.08 19.81 M-0.25 67.36 C11.91 53.56, 25.28 38.66, 41.08 19.81 M0.14 73 C9.55 60.86, 20.38 49.24, 40.82 26.21 M0.14 73 C10.17 61, 19.3 50.67, 40.82 26.21 M-0.12 79.4 C11.09 65.36, 25.9 51.6, 40.56 32.61 M-0.12 79.4 C7.67 70.17, 16.91 58.77, 40.56 32.61 M0.28 85.04 C10.55 71.98, 22.03 61.71, 40.95 38.25 M0.28 85.04 C8.93 74.6, 18.01 65.32, 40.95 38.25 M0.01 91.44 C13.18 76.02, 25.46 62.62, 40.69 44.65 M0.01 91.44 C13.36 76.71, 25.44 60.41, 40.69 44.65 M-0.25 97.84 C9.45 87.3, 20.11 73.16, 41.08 50.29 M-0.25 97.84 C11.28 84.72, 23.49 68.95, 41.08 50.29 M0.15 103.48 C15.18 86.64, 31.15 65.2, 40.82 56.69 M0.15 103.48 C13.32 88.19, 27.85 70.73, 40.82 56.69 M-0.11 109.88 C8.98 99.26, 17.31 90.54, 40.56 63.09 M-0.11 109.88 C13.18 94.5, 28.53 77.63, 40.56 63.09 M0.28 115.52 C13.16 102.31, 25.62 85.87, 40.96 68.73 M0.28 115.52 C11.53 103.14, 21.1 90.13, 40.96 68.73 M0.02 121.92 C8.27 110.47, 15.36 103.58, 40.69 75.13 M0.02 121.92 C11.33 108.29, 23.82 95, 40.69 75.13 M-0.24 128.32 C11.63 113.54, 24.1 96.92, 41.09 80.77 M-0.24 128.32 C13.55 112.4, 26 97.68, 41.09 80.77 M4.09 129.43 C17.53 116.06, 30.54 99.21, 40.83 87.17 M4.09 129.43 C11.47 119.32, 21.43 110.45, 40.83 87.17 M9.08 129.79 C21.85 115.88, 31.87 103.1, 40.57 93.56 M9.08 129.79 C15.05 122.35, 22.31 114.65, 40.57 93.56 M14.72 129.4 C20.66 118.97, 27.95 111.79, 40.96 99.21 M14.72 129.4 C22.26 121.42, 30.01 112.03, 40.96 99.21 M19.71 129.76 C27.59 122.1, 34.04 114.06, 40.7 105.61 M19.71 129.76 C27.06 123.02, 32.57 114.24, 40.7 105.61 M25.35 129.36 C30.57 122.07, 37.95 114.6, 41.09 111.25 M25.35 129.36 C30.9 123.28, 36.27 116.35, 41.09 111.25 M30.34 129.72 C33.5 126.42, 37.53 119.87, 40.83 117.65 M30.34 129.72 C32.46 126.4, 34.93 123.52, 40.83 117.65 M35.98 129.33 C37.81 126.7, 39.23 124.73, 40.57 124.04 M35.98 129.33 C37.3 127.64, 38.39 126.62, 40.57 124.04" stroke="#e03131" stroke-width="0.5" fill="none"/><path d="M0 0 C9.58 0.16, 19.18 1.56, 40.44 0 M0 0 C14.35 0.21, 26.58 0.26, 40.44 0 M40.44 0 C40.04 53.21, 40.94 103.45, 40.44 129.42 M40.44 0 C39.22 43.67, 40.98 87.42, 40.44 129.42 M40.44 129.42 C27.98 128.17, 14.47 127.58, 0 129.42 M40.44 129.42 C27 129.19, 14 129.75, 0 129.42 M0 129.42 C-2.92 81.55, -1.98 35.17, 0 0 M0 129.42 C0.14 96.28, 0.08 64.24, 0 0" stroke="#1e1e1e" stroke-width="1" fill="none"/></g><g stroke-linecap="round" transform="translate(314.82609238880855 218.44123112302807) rotate(0 20.22159609832968 97.06366127198247)"><path d="M0 0 C0 0, 0 0, 0 0 M0 0 C0 0, 0 0, 0 0 M-0.26 6.4 C1.66 3.62, 3.55 1.77, 4.99 0.36 M-0.26 6.4 C1.64 4.04, 3.46 1.49, 4.99 0.36 M0.13 12.04 C4.1 8.84, 7.4 4.5, 10.63 -0.03 M0.13 12.04 C2.57 8.7, 7.18 4.95, 10.63 -0.03 M-0.13 18.44 C6.81 13.96, 10.54 7.67, 15.62 0.33 M-0.13 18.44 C4.7 13.74, 9.3 7.81, 15.62 0.33 M0.27 24.08 C3.29 18.23, 10.23 12.01, 21.26 -0.07 M0.27 24.08 C7.64 13.67, 16.15 5.43, 21.26 -0.07 M0 30.48 C8.58 16.89, 18.96 7.4, 26.25 0.29 M0 30.48 C5.68 22.38, 12.07 16.36, 26.25 0.29 M-0.26 36.88 C10.33 23.35, 24.94 10.37, 31.89 -0.1 M-0.26 36.88 C11.2 23.36, 24.83 9.27, 31.89 -0.1 M0.14 42.52 C6.52 32.28, 15.12 26.22, 36.88 0.26 M0.14 42.52 C8.73 32.14, 19.44 21.76, 36.88 0.26 M-0.12 48.92 C14.49 33.13, 24.61 20.69, 41.86 0.62 M-0.12 48.92 C10.97 34.21, 24.8 20.62, 41.86 0.62 M0.27 54.56 C15.09 35.44, 32.44 15.95, 41.6 7.01 M0.27 54.56 C17.54 36.79, 33.06 18.32, 41.6 7.01 M0.01 60.96 C12.36 45.06, 24.81 30.89, 41.34 13.41 M0.01 60.96 C7.54 52.52, 17.38 41.99, 41.34 13.41 M-0.25 67.36 C14.83 51.26, 27.82 34.64, 41.74 19.06 M-0.25 67.36 C11.54 54.25, 22.19 41.31, 41.74 19.06 M0.14 73 C13.14 58.04, 26.92 41.64, 41.47 25.45 M0.14 73 C11.09 60.3, 22.47 46.88, 41.47 25.45 M-0.12 79.4 C16.2 62.96, 28.21 45.16, 41.87 31.1 M-0.12 79.4 C16.03 60.15, 31.59 42.59, 41.87 31.1 M0.28 85.04 C14.21 71.06, 23.83 55.24, 41.61 37.49 M0.28 85.04 C12.51 71.69, 23.89 58.78, 41.61 37.49 M0.01 91.44 C17.27 72.59, 32.65 55.27, 41.35 43.89 M0.01 91.44 C14.22 73.35, 29.68 56.9, 41.35 43.89 M-0.25 97.84 C17.03 77.2, 32.87 57.98, 41.74 49.53 M-0.25 97.84 C13.25 80.6, 28.77 66.19, 41.74 49.53 M0.15 103.48 C11.31 88.16, 25.38 77.14, 41.48 55.93 M0.15 103.48 C14.81 86.21, 27.7 70.21, 41.48 55.93 M-0.11 109.88 C15.15 93.08, 29.67 76.36, 41.87 61.58 M-0.11 109.88 C13.54 94.94, 26.06 79.89, 41.87 61.58 M0.28 115.52 C13.32 99.68, 25.73 85.09, 41.61 67.97 M0.28 115.52 C14.76 97.33, 30.2 79.99, 41.61 67.97 M0.02 121.92 C13.37 106.61, 29.92 88.36, 41.35 74.37 M0.02 121.92 C9.5 111.68, 19.17 100.34, 41.35 74.37 M-0.24 128.32 C8.47 114.96, 20.55 104.91, 41.75 80.01 M-0.24 128.32 C16.09 109.24, 33.07 90.2, 41.75 80.01 M0.15 133.96 C8.41 123.85, 16.52 113.45, 41.48 86.41 M0.15 133.96 C14.32 119.43, 27.13 103.74, 41.48 86.41 M-0.11 140.36 C10.83 126.83, 19.19 115.21, 41.88 92.06 M-0.11 140.36 C11.94 126.75, 24.33 112.37, 41.88 92.06 M0.29 146 C13.14 129.68, 28.35 114.11, 41.62 98.45 M0.29 146 C13.24 131.04, 25.72 116.93, 41.62 98.45 M0.02 152.4 C11.5 139.64, 21.55 126.45, 41.36 104.85 M0.02 152.4 C8.22 141.29, 17.88 131.85, 41.36 104.85 M-0.24 158.8 C14.67 141.68, 29.4 127.72, 41.75 110.49 M-0.24 158.8 C13.47 142.56, 29.61 124.49, 41.75 110.49 M0.16 164.44 C14.69 145.67, 30.8 129.38, 41.49 116.89 M0.16 164.44 C11.35 150.96, 24.12 138.92, 41.49 116.89 M-0.1 170.84 C9.89 157.24, 20.92 145.27, 41.88 122.53 M-0.1 170.84 C11.46 157.84, 23.54 143.78, 41.88 122.53 M0.29 176.48 C9.77 165.73, 19.7 153.98, 41.62 128.93 M0.29 176.48 C10.54 164.9, 21.19 152.06, 41.62 128.93 M0.03 182.88 C15.07 165.81, 27.95 148.25, 41.36 135.33 M0.03 182.88 C16.51 163.89, 32.21 145.65, 41.36 135.33 M-0.23 189.27 C12.41 174.2, 26.35 159.67, 41.76 140.97 M-0.23 189.27 C11.02 175.65, 24.08 162.07, 41.76 140.97 M0.16 194.92 C13.52 183.97, 21.61 169.59, 41.49 147.37 M0.16 194.92 C10.23 184.3, 19.85 172.49, 41.49 147.37 M5.81 194.52 C15.14 181.66, 27.74 168.63, 41.23 153.77 M5.81 194.52 C19.45 179.82, 32.04 164.3, 41.23 153.77 M10.79 194.88 C19.71 183.19, 28.62 173.64, 41.63 159.41 M10.79 194.88 C17.53 186.73, 25.99 178.19, 41.63 159.41 M16.44 194.49 C21.76 188.92, 26.57 180.9, 41.37 165.81 M16.44 194.49 C22.55 187.93, 27.73 179.24, 41.37 165.81 M21.42 194.85 C28.72 186.72, 37.04 177.17, 41.76 171.45 M21.42 194.85 C27.58 189.2, 32.37 183.45, 41.76 171.45 M27.07 194.45 C30.68 186.85, 35.72 181.93, 41.5 177.85 M27.07 194.45 C32.15 189.65, 36.86 183.56, 41.5 177.85 M32.05 194.81 C34.53 191.39, 37.89 186.81, 41.24 184.25 M32.05 194.81 C34.29 192.11, 36.8 189.73, 41.24 184.25 M37.7 194.42 C38.38 193.94, 39.12 192.25, 41.63 189.89 M37.7 194.42 C38.79 193.16, 39.64 192.1, 41.63 189.89" stroke="#e03131" stroke-width="0.5" fill="none"/><path d="M0 0 C15.37 1.83, 32.6 1.17, 40.44 0 M0 0 C11.21 0.16, 24.7 -0.81, 40.44 0 M40.44 0 C42.41 45.33, 41.65 88.22, 40.44 194.13 M40.44 0 C39.51 55.07, 38.98 107.43, 40.44 194.13 M40.44 194.13 C31.51 192.33, 21.51 192.16, 0 194.13 M40.44 194.13 C30.43 194.7, 21.66 194.87, 0 194.13 M0 194.13 C0.89 117.94, 0.96 38.33, 0 0 M0 194.13 C0.14 126.34, -0.39 58.34, 0 0" stroke="#1e1e1e" stroke-width="1" fill="none"/></g><g stroke-linecap="round" transform="translate(370.43548165921516 347.859446152338) rotate(0 20.22159609832968 32.354553757327494)"><path d="M0 0 C0 0, 0 0, 0 0 M0 0 C0 0, 0 0, 0 0 M-0.26 6.4 C1.72 3.95, 4.03 1.63, 4.99 0.36 M-0.26 6.4 C1.2 4.09, 3.4 2.14, 4.99 0.36 M0.13 12.04 C2.46 9.94, 5.43 7.23, 10.63 -0.03 M0.13 12.04 C5.01 7.7, 8.53 3.24, 10.63 -0.03 M-0.13 18.44 C3.51 15.44, 5.77 10.31, 15.62 0.33 M-0.13 18.44 C6.02 11.47, 10.57 4.87, 15.62 0.33 M0.27 24.08 C8.48 14.35, 17.64 6.37, 21.26 -0.07 M0.27 24.08 C5.53 18.03, 12.91 10.86, 21.26 -0.07 M0 30.48 C9.36 19.16, 19.73 6.49, 26.25 0.29 M0 30.48 C7.92 21.56, 17.67 10.54, 26.25 0.29 M-0.26 36.88 C10.59 26.81, 20.13 13.53, 31.89 -0.1 M-0.26 36.88 C8.15 28.2, 14.12 19.75, 31.89 -0.1 M0.14 42.52 C10.11 32.51, 19.51 21.44, 36.88 0.26 M0.14 42.52 C13.38 29.27, 24.7 13.78, 36.88 0.26 M-0.12 48.92 C15.11 31.45, 31.61 13.58, 40.55 2.13 M-0.12 48.92 C11.86 36.54, 22.7 25.21, 40.55 2.13 M0.27 54.56 C11.25 40.99, 23.03 29.25, 40.95 7.77 M0.27 54.56 C10.48 43.03, 20.67 29.98, 40.95 7.77 M0.01 60.96 C14.78 42.81, 28.53 25.54, 40.69 14.17 M0.01 60.96 C11.03 49.02, 20.74 37.25, 40.69 14.17 M1.72 65.09 C14.26 49.87, 26.25 34.79, 41.08 19.81 M1.72 65.09 C15.08 49.23, 29.65 32.57, 41.08 19.81 M7.36 64.7 C16.94 52.92, 28.21 41.1, 40.82 26.21 M7.36 64.7 C14.27 56.26, 21.63 48.3, 40.82 26.21 M12.35 65.06 C19.36 54.72, 31.67 42.77, 40.56 32.61 M12.35 65.06 C23.13 52.49, 34.89 39.44, 40.56 32.61 M17.33 65.42 C21.03 57.99, 28.17 52.12, 40.95 38.25 M17.33 65.42 C22.77 59.62, 29.25 53.29, 40.95 38.25 M22.98 65.02 C27.76 60.91, 33.01 55.56, 40.69 44.65 M22.98 65.02 C29.26 58.12, 37.49 49.7, 40.69 44.65 M27.96 65.38 C32.62 58.6, 38.21 52.57, 41.08 50.29 M27.96 65.38 C34.18 60.13, 38.24 53.27, 41.08 50.29 M33.61 64.99 C36.91 62.81, 39.73 58.25, 40.82 56.69 M33.61 64.99 C35.84 61.67, 39.44 58.8, 40.82 56.69 M38.59 65.35 C39.21 64.74, 39.58 63.96, 40.56 63.09 M38.59 65.35 C39.36 64.46, 40.12 63.62, 40.56 63.09" stroke="#e03131" stroke-width="0.5" fill="none"/><path d="M0 0 C13.96 0.88, 26.33 1.07, 40.44 0 M0 0 C13.84 -0.83, 25.04 0.18, 40.44 0 M40.44 0 C41.6 25.32, 40.5 49.76, 40.44 64.71 M40.44 0 C41.3 20.97, 40.39 44.39, 40.44 64.71 M40.44 64.71 C30.81 62.62, 19.06 63.66, 0 64.71 M40.44 64.71 C28.95 65.67, 17.07 63.95, 0 64.71 M0 64.71 C-0.62 44.82, 1.33 25.6, 0 0 M0 64.71 C-0.63 48.47, 0.6 32, 0 0" stroke="#1e1e1e" stroke-width="1" fill="none"/></g><g stroke-linecap="round" transform="translate(426.04487092962177 347.859446152338) rotate(0 20.221596098329684 32.354553757327494)"><path d="M0 0 C0 0, 0 0, 0 0 M0 0 C0 0, 0 0, 0 0 M-0.26 6.4 C1.49 4.53, 2.25 3.54, 4.99 0.36 M-0.26 6.4 C1.48 4.41, 2.54 3.07, 4.99 0.36 M0.13 12.04 C4.06 8.84, 9.17 1.83, 10.63 -0.03 M0.13 12.04 C3.95 8.28, 6.72 4.19, 10.63 -0.03 M-0.13 18.44 C5.17 11.19, 12.5 5.91, 15.62 0.33 M-0.13 18.44 C4.62 11.82, 11.54 4.79, 15.62 0.33 M0.27 24.08 C8.18 17.04, 11.82 8.37, 21.26 -0.07 M0.27 24.08 C5.68 18.84, 10.17 13.13, 21.26 -0.07 M0 30.48 C4.59 23.58, 11.71 16.15, 26.25 0.29 M0 30.48 C6.8 22.69, 11.93 15.97, 26.25 0.29 M-0.26 36.88 C10.7 23.68, 17.52 12.53, 31.89 -0.1 M-0.26 36.88 C8.76 25.32, 19.54 12.94, 31.89 -0.1 M0.14 42.52 C7.51 34.51, 17.23 22.52, 36.88 0.26 M0.14 42.52 C12.77 26.7, 26.78 13.16, 36.88 0.26 M-0.12 48.92 C9.97 38.71, 19.6 23.88, 40.55 2.13 M-0.12 48.92 C9.43 39.42, 17.15 27.75, 40.55 2.13 M0.27 54.56 C12.52 41.2, 20.38 32.22, 40.95 7.77 M0.27 54.56 C14.69 37.14, 29.86 20.78, 40.95 7.77 M0.01 60.96 C8 49.13, 18.73 36.61, 40.69 14.17 M0.01 60.96 C15.9 42.4, 31.66 25.02, 40.69 14.17 M1.72 65.09 C12.87 50.53, 26.35 38.57, 41.08 19.81 M1.72 65.09 C14.33 50.51, 26.23 36.65, 41.08 19.81 M7.36 64.7 C18.83 51.98, 29.26 37.29, 40.82 26.21 M7.36 64.7 C17.47 53.18, 26.69 43.41, 40.82 26.21 M12.35 65.06 C23.74 52.53, 33.64 42.86, 40.56 32.61 M12.35 65.06 C19.51 57.06, 25.78 49.68, 40.56 32.61 M17.33 65.42 C24.78 56.65, 31.29 49.05, 40.95 38.25 M17.33 65.42 C25.19 57.93, 30.69 50.01, 40.95 38.25 M22.98 65.02 C29.23 59.88, 34.39 51.86, 40.69 44.65 M22.98 65.02 C28.86 59.38, 33.4 54.16, 40.69 44.65 M27.96 65.38 C31.7 60.12, 36.08 56.76, 41.08 50.29 M27.96 65.38 C30.4 61.79, 34.02 58.62, 41.08 50.29 M33.61 64.99 C35.83 62.53, 38.11 61.17, 40.82 56.69 M33.61 64.99 C35.69 63.21, 36.91 61.24, 40.82 56.69 M38.59 65.35 C39.16 64.45, 39.96 64.18, 40.56 63.09 M38.59 65.35 C39.24 64.65, 39.95 63.91, 40.56 63.09" stroke="#e03131" stroke-width="0.5" fill="none"/><path d="M0 0 C15.92 1.21, 32.47 -1.58, 40.44 0 M0 0 C12.36 0.57, 27.14 1.02, 40.44 0 M40.44 0 C40.25 20.76, 41.46 46.87, 40.44 64.71 M40.44 0 C40.04 25.44, 40.14 50.35, 40.44 64.71 M40.44 64.71 C30.36 63.62, 22.67 63.8, 0 64.71 M40.44 64.71 C27 64.02, 11.55 64.49, 0 64.71 M0 64.71 C1.31 40.2, -0.65 16, 0 0 M0 64.71 C0.95 44.31, -0.42 24.96, 0 0" stroke="#1e1e1e" stroke-width="1" fill="none"/></g><g stroke-linecap="round" transform="translate(481.6542602000284 347.859446152338) rotate(0 20.221596098329684 32.354553757327494)"><path d="M0 0 C0 0, 0 0, 0 0 M0 0 C0 0, 0 0, 0 0 M-0.26 6.4 C1.24 4.68, 2.22 2.82, 4.99 0.36 M-0.26 6.4 C0.62 5.19, 2.2 3.8, 4.99 0.36 M0.13 12.04 C5.28 6.25, 8.58 4.7, 10.63 -0.03 M0.13 12.04 C2.98 8.56, 7.89 3.82, 10.63 -0.03 M-0.13 18.44 C6.55 12.96, 11.66 7.1, 15.62 0.33 M-0.13 18.44 C4.92 12.65, 8.46 8.8, 15.62 0.33 M0.27 24.08 C4.81 16.14, 8.75 10.47, 21.26 -0.07 M0.27 24.08 C8.17 15.09, 13.52 7.01, 21.26 -0.07 M0 30.48 C8.89 19.49, 15.32 10.03, 26.25 0.29 M0 30.48 C8.95 19.28, 18.33 10.03, 26.25 0.29 M-0.26 36.88 C8.76 22.97, 21.08 13.84, 31.89 -0.1 M-0.26 36.88 C9.31 25.29, 18.33 14.83, 31.89 -0.1 M0.14 42.52 C14.21 26.06, 27.91 13.44, 36.88 0.26 M0.14 42.52 C15.74 26.82, 28.88 8.82, 36.88 0.26 M-0.12 48.92 C13.32 30.86, 26.57 17.83, 40.55 2.13 M-0.12 48.92 C10.07 35.43, 21.16 23.35, 40.55 2.13 M0.27 54.56 C7.5 46.62, 18.08 35.62, 40.95 7.77 M0.27 54.56 C15.71 37.61, 29.12 20.63, 40.95 7.77 M0.01 60.96 C9.75 47.29, 23.01 38.42, 40.69 14.17 M0.01 60.96 C11.95 47.95, 23.59 33.85, 40.69 14.17 M1.72 65.09 C13.48 53.65, 23.18 40.22, 41.08 19.81 M1.72 65.09 C13.93 50.72, 26.49 36.64, 41.08 19.81 M7.36 64.7 C16.57 51.69, 29.22 39.26, 40.82 26.21 M7.36 64.7 C15.31 56.29, 23.5 45.67, 40.82 26.21 M12.35 65.06 C22.61 55.15, 28.15 44.62, 40.56 32.61 M12.35 65.06 C20.7 55.35, 30.47 43.48, 40.56 32.61 M17.33 65.42 C22.12 59.29, 29.33 51.53, 40.95 38.25 M17.33 65.42 C25 56.25, 33.74 46.13, 40.95 38.25 M22.98 65.02 C30.52 56.23, 34.52 49.72, 40.69 44.65 M22.98 65.02 C30.11 57.72, 35.44 49.69, 40.69 44.65 M27.96 65.38 C32.82 60.47, 32.18 60.33, 41.08 50.29 M27.96 65.38 C33.46 59.57, 36.67 55.26, 41.08 50.29 M33.61 64.99 C37.37 62.11, 38.58 57.43, 40.82 56.69 M33.61 64.99 C35.28 62.93, 37.46 60.64, 40.82 56.69 M38.59 65.35 C39.41 64.84, 39.76 64.11, 40.56 63.09 M38.59 65.35 C39.26 64.7, 39.69 63.99, 40.56 63.09" stroke="#e03131" stroke-width="0.5" fill="none"/><path d="M0 0 C15.08 -1.62, 29.89 1.62, 40.44 0 M0 0 C10.16 0.61, 18.84 0.23, 40.44 0 M40.44 0 C41.1 19.57, 42.03 36.37, 40.44 64.71 M40.44 0 C39.55 13.34, 39.26 26.15, 40.44 64.71 M40.44 64.71 C31.91 64.01, 24.47 65.96, 0 64.71 M40.44 64.71 C25.33 63.8, 10.95 63.83, 0 64.71 M0 64.71 C-1.28 46.53, -0.04 27.83, 0 0 M0 64.71 C-1.22 45.72, -0.41 24.45, 0 0" stroke="#1e1e1e" stroke-width="1" fill="none"/></g><g stroke-linecap="round" transform="translate(537.263649470435 347.859446152338) rotate(0 20.221596098329684 32.354553757327494)"><path d="M0 0 C0 0, 0 0, 0 0 M0 0 C0 0, 0 0, 0 0 M-0.26 6.4 C0.79 4.49, 1.44 4.08, 4.99 0.36 M-0.26 6.4 C1.17 5.01, 2.3 3.78, 4.99 0.36 M0.13 12.04 C4.89 9, 8.74 3.36, 10.63 -0.03 M0.13 12.04 C4.65 7.68, 8.39 2.81, 10.63 -0.03 M-0.13 18.44 C5.03 14.46, 7.63 7.22, 15.62 0.33 M-0.13 18.44 C3.94 13.82, 7.87 9.64, 15.62 0.33 M0.27 24.08 C4.6 15.76, 13.34 11.94, 21.26 -0.07 M0.27 24.08 C5.25 16.63, 12.39 9.65, 21.26 -0.07 M0 30.48 C5.73 20.92, 15.55 15.28, 26.25 0.29 M0 30.48 C5.7 24.82, 11.65 18.44, 26.25 0.29 M-0.26 36.88 C6.8 30.89, 12.9 20.42, 31.89 -0.1 M-0.26 36.88 C9.03 25.48, 20.36 13.73, 31.89 -0.1 M0.14 42.52 C15.12 28.25, 30.04 10.35, 36.88 0.26 M0.14 42.52 C8.45 31.31, 18.66 20.85, 36.88 0.26 M-0.12 48.92 C14.57 32.43, 31.63 14.03, 41.86 0.62 M-0.12 48.92 C15.67 30.91, 31.17 13.22, 41.86 0.62 M0.27 54.56 C10.72 44.17, 19.96 33.33, 41.6 7.01 M0.27 54.56 C9.63 42.55, 20.05 29.99, 41.6 7.01 M0.01 60.96 C13.03 49.91, 22.05 36.73, 41.34 13.41 M0.01 60.96 C10.8 48.25, 21.39 35.36, 41.34 13.41 M1.06 65.85 C10.93 53.55, 20.95 43.51, 41.74 19.06 M1.06 65.85 C11.13 54.39, 20.53 43.65, 41.74 19.06 M6.7 65.45 C18.87 51.67, 29.98 38.82, 41.47 25.45 M6.7 65.45 C15.01 55.17, 22.68 47.64, 41.47 25.45 M11.69 65.81 C16.97 57.2, 25.12 50.57, 41.87 31.1 M11.69 65.81 C21.25 54.17, 29.81 44.36, 41.87 31.1 M17.33 65.42 C24.38 57.27, 32.63 51.08, 41.61 37.49 M17.33 65.42 C26.07 55.39, 35.53 45.69, 41.61 37.49 M22.32 65.78 C27.89 57.53, 36.27 53.33, 41.35 43.89 M22.32 65.78 C27.3 59.05, 32.99 52.82, 41.35 43.89 M27.96 65.38 C28.83 64.06, 34.74 58.56, 41.74 49.53 M27.96 65.38 C30.79 61.86, 35.73 57.85, 41.74 49.53 M32.95 65.74 C34.41 61.79, 37.14 61.03, 41.48 55.93 M32.95 65.74 C35.8 62.67, 38.69 59.08, 41.48 55.93 M38.59 65.35 C39.35 64.58, 39.9 63.81, 41.87 61.58 M38.59 65.35 C39.52 64.1, 40.59 63.21, 41.87 61.58" stroke="#e03131" stroke-width="0.5" fill="none"/><path d="M0 0 C15.56 2.18, 28.73 -1.16, 40.44 0 M0 0 C13.71 0.05, 26.21 -0.5, 40.44 0 M40.44 0 C42.42 14.11, 38.7 25.8, 40.44 64.71 M40.44 0 C39.32 22.58, 39.23 44.1, 40.44 64.71 M40.44 64.71 C30.93 65.99, 20.59 66.6, 0 64.71 M40.44 64.71 C33.02 64.03, 23.87 65, 0 64.71 M0 64.71 C0.59 45.07, 0.45 29.51, 0 0 M0 64.71 C0.48 45.32, 0.21 26.25, 0 0" stroke="#1e1e1e" stroke-width="1" fill="none"/></g><g stroke-linecap="round" transform="translate(592.8730387408416 347.859446152338) rotate(0 20.221596098329684 32.354553757327494)"><path d="M0 0 C0 0, 0 0, 0 0 M0 0 C0 0, 0 0, 0 0 M-0.26 6.4 C0.48 5.22, 1.96 2.73, 4.99 0.36 M-0.26 6.4 C1.56 4.56, 3.26 3.02, 4.99 0.36 M0.13 12.04 C3.08 9.73, 5.73 5.22, 10.63 -0.03 M0.13 12.04 C4.57 7.06, 8.18 2.89, 10.63 -0.03 M-0.13 18.44 C4.44 10.9, 9.68 7.62, 15.62 0.33 M-0.13 18.44 C2.71 15.57, 6.4 10.56, 15.62 0.33 M0.27 24.08 C5.61 20.98, 8.87 16.24, 21.26 -0.07 M0.27 24.08 C5.34 18.22, 9.65 13.6, 21.26 -0.07 M0 30.48 C7.22 25.19, 10.4 16.8, 26.25 0.29 M0 30.48 C6.17 24.33, 10.74 16.16, 26.25 0.29 M-0.26 36.88 C6.09 27.39, 12.86 21.2, 31.89 -0.1 M-0.26 36.88 C8.3 27.66, 16.18 19.61, 31.89 -0.1 M0.14 42.52 C11.21 31.41, 17.61 22.67, 36.88 0.26 M0.14 42.52 C15.29 25.87, 30.13 8.96, 36.88 0.26 M-0.12 48.92 C8.82 39.83, 20.15 26.63, 40.55 2.13 M-0.12 48.92 C9.58 37.76, 20.09 24.44, 40.55 2.13 M0.27 54.56 C16.65 36.83, 29.8 20.51, 40.95 7.77 M0.27 54.56 C11.4 40.67, 22.82 28.1, 40.95 7.77 M0.01 60.96 C7.8 51.71, 15.61 41.9, 40.69 14.17 M0.01 60.96 C13.93 44.26, 27.92 28.73, 40.69 14.17 M1.72 65.09 C14.72 51.18, 26.08 36.04, 41.08 19.81 M1.72 65.09 C11.3 54.09, 21.01 42.45, 41.08 19.81 M7.36 64.7 C15.91 54.59, 25.47 42.67, 40.82 26.21 M7.36 64.7 C19.13 52.12, 30.19 38.64, 40.82 26.21 M12.35 65.06 C20.98 56.02, 28.78 45.37, 40.56 32.61 M12.35 65.06 C22.12 53.35, 32.7 41.04, 40.56 32.61 M17.33 65.42 C26.51 58.04, 34.64 45.94, 40.95 38.25 M17.33 65.42 C26.52 56.06, 35.05 46.18, 40.95 38.25 M22.98 65.02 C28.34 62.65, 30.7 57.73, 40.69 44.65 M22.98 65.02 C28.34 58.56, 34.01 52.4, 40.69 44.65 M27.96 65.38 C32.11 61.68, 33.14 60.16, 41.08 50.29 M27.96 65.38 C32.14 62.1, 34.11 58.88, 41.08 50.29 M33.61 64.99 C35.78 62.81, 38.88 59, 40.82 56.69 M33.61 64.99 C36.03 62.11, 38.14 59.67, 40.82 56.69 M38.59 65.35 C39.22 64.63, 39.96 64.02, 40.56 63.09 M38.59 65.35 C39.19 64.79, 39.84 64.05, 40.56 63.09" stroke="#e03131" stroke-width="0.5" fill="none"/><path d="M0 0 C8 -1.82, 19.46 1.59, 40.44 0 M0 0 C14.82 -0.35, 29.2 0.26, 40.44 0 M40.44 0 C39 23.68, 41.91 48.76, 40.44 64.71 M40.44 0 C39.04 21.32, 39.56 43.84, 40.44 64.71 M40.44 64.71 C30.89 66.99, 16.43 64.97, 0 64.71 M40.44 64.71 C30.11 65.02, 20.11 64.04, 0 64.71 M0 64.71 C0.05 47.92, -0.26 27.53, 0 0 M0 64.71 C-0.32 38.9, 0.78 14.14, 0 0" stroke="#1e1e1e" stroke-width="1" fill="none"/></g><g stroke-linecap="round" transform="translate(648.4824280112482 347.859446152338) rotate(0 20.221596098329684 32.354553757327494)"><path d="M0 0 C0 0, 0 0, 0 0 M0 0 C0 0, 0 0, 0 0 M-0.26 6.4 C0.36 4.55, 2.3 4.07, 4.99 0.36 M-0.26 6.4 C1.5 5.03, 2.33 3.2, 4.99 0.36 M0.13 12.04 C5.33 5.77, 9.85 3.58, 10.63 -0.03 M0.13 12.04 C3.3 8.59, 7.27 4.5, 10.63 -0.03 M-0.13 18.44 C4.83 13.55, 9.01 5.78, 15.62 0.33 M-0.13 18.44 C4.88 12.27, 9.04 5.84, 15.62 0.33 M0.27 24.08 C4.67 20.37, 8.05 11.32, 21.26 -0.07 M0.27 24.08 C5.03 18.61, 9.55 11.88, 21.26 -0.07 M0 30.48 C4.21 23.11, 10.43 16.38, 26.25 0.29 M0 30.48 C8.46 18.64, 18 8.5, 26.25 0.29 M-0.26 36.88 C11.47 23.37, 21.55 9.14, 31.89 -0.1 M-0.26 36.88 C9.52 26.77, 17.43 16.43, 31.89 -0.1 M0.14 42.52 C12.91 28.19, 29.93 8.94, 36.88 0.26 M0.14 42.52 C10.88 30.57, 19.41 18.52, 36.88 0.26 M-0.12 48.92 C17.26 29.67, 30.4 11.77, 40.55 2.13 M-0.12 48.92 C12.51 33.14, 27.1 19.19, 40.55 2.13 M0.27 54.56 C12.02 41, 25.66 23.34, 40.95 7.77 M0.27 54.56 C11.26 41.62, 21.79 30.26, 40.95 7.77 M0.01 60.96 C13.93 44.48, 30.26 27.22, 40.69 14.17 M0.01 60.96 C11.97 47.38, 25.14 32.72, 40.69 14.17 M1.72 65.09 C10.78 53.35, 21.26 42.13, 41.08 19.81 M1.72 65.09 C11.44 53.45, 20.26 43.48, 41.08 19.81 M7.36 64.7 C16.33 53.22, 28.96 41.96, 40.82 26.21 M7.36 64.7 C13.63 57.28, 21.35 47.64, 40.82 26.21 M12.35 65.06 C19.5 55.63, 27.83 48.99, 40.56 32.61 M12.35 65.06 C18.31 57.61, 24.77 51.36, 40.56 32.61 M17.33 65.42 C25.5 56.04, 32.67 48.52, 40.95 38.25 M17.33 65.42 C25.22 57.19, 31.74 47.28, 40.95 38.25 M22.98 65.02 C27.15 61.31, 32.07 53.76, 40.69 44.65 M22.98 65.02 C27.42 59.92, 32.73 52.09, 40.69 44.65 M27.96 65.38 C32.19 61.14, 37.19 52.32, 41.08 50.29 M27.96 65.38 C32 61.05, 37.11 54.43, 41.08 50.29 M33.61 64.99 C35.51 62.73, 37.04 61.45, 40.82 56.69 M33.61 64.99 C35.64 62.58, 38.84 59.33, 40.82 56.69 M38.59 65.35 C39.23 64.85, 39.82 63.86, 40.56 63.09 M38.59 65.35 C39.18 64.79, 39.52 64.1, 40.56 63.09" stroke="#e03131" stroke-width="0.5" fill="none"/><path d="M0 0 C16.55 2.26, 33.47 1.27, 40.44 0 M0 0 C12.61 0.48, 27.89 0.94, 40.44 0 M40.44 0 C40.7 20.39, 40.57 41.19, 40.44 64.71 M40.44 0 C39.51 20.95, 39.6 42.44, 40.44 64.71 M40.44 64.71 C23.52 65.09, 9.52 66.56, 0 64.71 M40.44 64.71 C30.02 64.43, 19.76 65.05, 0 64.71 M0 64.71 C-0.21 48.63, 1.71 36.06, 0 0 M0 64.71 C0.96 48.28, 0.4 31.88, 0 0" stroke="#1e1e1e" stroke-width="1" fill="none"/></g><g transform="translate(91.29011621234872 456.2542752098923) rotate(336.3262257417932 67.41393280029297 23.254835513079115)"><text x="134.82786560058594" y="18.604263363512096" font-family="Helvetica, Segoe UI Emoji" font-size="20.22159609832968px" fill="#1e1e1e" text-anchor="end" style="white-space: pre;" direction="ltr" dominant-baseline="alphabetic">DSS Flowchart</text><text x="134.82786560058594" y="41.859098876591226" font-family="Helvetica, Segoe UI Emoji" font-size="20.22159609832968px" fill="#1e1e1e" text-anchor="end" style="white-space: pre;" direction="ltr" dominant-baseline="alphabetic"/></g><g transform="translate(80.94982252533885 470.8851649648659) rotate(336.3262257417932 102.24882507324219 11.627417756539558)"><text x="204.49765014648438" y="18.604263363512096" font-family="Helvetica, Segoe UI Emoji" font-size="20.22159609832968px" fill="#1e1e1e" text-anchor="end" style="white-space: pre;" direction="ltr" dominant-baseline="alphabetic">Heuristic/Metaheuristic</text></g><g transform="translate(-0.07921111773953271 501.590565527443) rotate(336.3262257417932 175.2505645751953 11.627417756539558)"><text x="350.5011291503906" y="18.604263363512096" font-family="Helvetica, Segoe UI Emoji" font-size="20.22159609832968px" fill="#1e1e1e" text-anchor="end" style="white-space: pre;" direction="ltr" dominant-baseline="alphabetic">Multi-Criteria Decision Making (MCDM)</text></g><g transform="translate(209.19910688554748 468.7724402930688) rotate(336.3262257417932 96.07855224609375 11.627417756539558)"><text x="192.1571044921875" y="18.604263363512096" font-family="Helvetica, Segoe UI Emoji" font-size="20.22159609832968px" fill="#1e1e1e" text-anchor="end" style="white-space: pre;" direction="ltr" dominant-baseline="alphabetic">Cost-Benefit Analysis</text></g><g transform="translate(198.21721191580758 484.6547167861421) rotate(336.3262257417932 129.7978515625 11.627417756539558)"><text x="259.595703125" y="18.604263363512096" font-family="Helvetica, Segoe UI Emoji" font-size="20.22159609832968px" fill="#1e1e1e" text-anchor="end" style="white-space: pre;" direction="ltr" dominant-baseline="alphabetic">Machine learning (clustering)</text></g><g transform="translate(95.34776838442036 518.41268632117) rotate(336.3262257417932 213.50131225585938 11.627417756539558)"><text x="427.00262451171875" y="18.604263363512096" font-family="Helvetica, Segoe UI Emoji" font-size="20.22159609832968px" fill="#1e1e1e" text-anchor="end" style="white-space: pre;" direction="ltr" dominant-baseline="alphabetic">Rule-Based Decision Support System (RBDSS)</text></g><g transform="translate(400.6743899392881 464.52004578828917) rotate(336.3262257417932 81.08723449707031 11.627417756539558)"><text x="162.17446899414062" y="18.604263363512096" font-family="Helvetica, Segoe UI Emoji" font-size="20.22159609832968px" fill="#1e1e1e" text-anchor="end" style="white-space: pre;" direction="ltr" dominant-baseline="alphabetic">Real-Time Sensor</text></g><g transform="translate(428.02364047386413 469.8167527125733) rotate(336.3262257417932 96.25623321533203 11.627417756539572)"><text x="192.51246643066406" y="18.604263363512096" font-family="Helvetica, Segoe UI Emoji" font-size="20.22159609832968px" fill="#1e1e1e" text-anchor="end" style="white-space: pre;" direction="ltr" dominant-baseline="alphabetic">Real-Time Simulation</text></g><g transform="translate(514.8770674629582 464.069474881907) rotate(336.3262257417932 81.46734619140625 11.627417756539558)"><text x="162.9346923828125" y="18.604263363512096" font-family="Helvetica, Segoe UI Emoji" font-size="20.22159609832968px" fill="#1e1e1e" text-anchor="end" style="white-space: pre;" direction="ltr" dominant-baseline="alphabetic">Fuzzy-based DSS</text></g><g transform="translate(10.884353998471283 396.7704317151729) rotate(0 7.0257720947265625 14.534272195674461)"><text x="14.051544189453125" y="23.255329204390122" font-family="Helvetica, Segoe UI Emoji" font-size="25.276995122912098px" fill="#1e1e1e" text-anchor="end" style="white-space: pre;" direction="ltr" dominant-baseline="alphabetic">0</text></g><g transform="translate(10.653755227965235 72.59296926382521) rotate(0 7.0257720947265625 14.534272195674461)"><text x="14.051544189453125" y="23.255329204390126" font-family="Helvetica, Segoe UI Emoji" font-size="25.2769951229121px" fill="#1e1e1e" text-anchor="end" style="white-space: pre;" direction="ltr" dominant-baseline="alphabetic">5</text></g><g stroke-linecap="round"><g transform="translate(42.097679498959565 427.7347507407402) rotate(0 330.9970688913477 0)"><path d="M0 0 C174.93 1.29, 349.54 1.53, 661.99 0 M0 0 C133.64 1.17, 266.6 1.56, 661.99 0" stroke="#1e1e1e" stroke-width="1" fill="none"/></g></g><mask/><g stroke-linecap="round"><g transform="translate(41.44111677424803 427.7347507407402) rotate(0 0 -176.9389658603847)"><path d="M0 0 C-0.35 -95.13, -2.57 -192.85, 0 -353.88 M0 0 C-1.82 -87.71, -1.78 -176.37, 0 -353.88" stroke="#1e1e1e" stroke-width="1" fill="none"/></g></g><mask/><g stroke-linecap="round"><g stroke-opacity="0.5" fill-opacity="0.5" transform="translate(48.37216985540488 89.02301609371807) rotate(0 327.859823713125 0)"><path d="M0 0 C241.63 -2.63, 484.42 -2.04, 655.72 0" stroke="#1e1e1e" stroke-width="1.5" fill="none" stroke-dasharray="1.5 7"/></g></g><mask/><g stroke-linecap="round"><g stroke-opacity="0.5" fill-opacity="0.5" transform="translate(49.62706792669394 216.78032646662606) rotate(0 325.8048336351525 0)"><path d="M0 0 C225.86 2.68, 453.83 1.71, 651.61 0" stroke="#1e1e1e" stroke-width="1.5" fill="none" stroke-dasharray="1.5 7"/></g></g><mask/><g transform="translate(11.816978815365815 201.08544215979427) rotate(0 7.0257720947265625 14.534272195674458)"><text x="14.051544189453125" y="23.255329204390126" font-family="Helvetica, Segoe UI Emoji" font-size="25.2769951229121px" fill="#1e1e1e" text-anchor="end" style="white-space: pre;" direction="ltr" dominant-baseline="alphabetic">3</text></g><g stroke-linecap="round"><g stroke-opacity="0.5" fill-opacity="0.5" transform="translate(49.62706792669394 286.2271465218619) rotate(0 326.4421169603478 0)"><path d="M0 0 C135.96 -3.25, 272.53 -2.68, 652.88 0" stroke="#1e1e1e" stroke-width="1.5" fill="none" stroke-dasharray="1.5 7"/></g></g><mask/><g transform="translate(11.56212652044394 267.59514674963805) rotate(0 7.0257720947265625 14.534272195674458)"><text x="14.051544189453125" y="23.255329204390126" font-family="Helvetica, Segoe UI Emoji" font-size="25.2769951229121px" fill="#1e1e1e" text-anchor="end" style="white-space: pre;" direction="ltr" dominant-baseline="alphabetic">2</text></g><g stroke-linecap="round"><g stroke-opacity="0.5" fill-opacity="0.5" transform="translate(50.88196599798306 346.9465026059406) rotate(0 326.81463740712513 0)"><path d="M0 0 C193.35 1.5, 387.16 1.32, 653.63 0" stroke="#1e1e1e" stroke-width="1.5" fill="none" stroke-dasharray="1.5 7"/></g></g><mask/><g transform="translate(10.797386530209565 333.3598562222943) rotate(0 7.0257720947265625 14.534272195674454)"><text x="14.051544189453125" y="23.255329204390126" font-family="Helvetica, Segoe UI Emoji" font-size="25.2769951229121px" fill="#1e1e1e" text-anchor="end" style="white-space: pre;" direction="ltr" dominant-baseline="alphabetic">1</text></g><g transform="translate(80.45847356634238 10) rotate(0 298.005859375 16.099999999999994)"><text x="596.01171875" y="25.760546874999996" font-family="Helvetica, Segoe UI Emoji" font-size="28px" fill="#1e1e1e" text-anchor="end" style="white-space: pre;" direction="ltr" dominant-baseline="alphabetic">Summary of Models Used in Previous Research</text></g></svg>