<svg version="1.1" xmlns="http://www.w3.org/2000/svg" viewBox="0 0 1140 507.9660744597944" width="1140" height="507.9660744597944" class="excalidraw-svg">
  <!-- svg-source:excalidraw -->
  
  <defs>
    <style class="style-fonts">
      @font-face {
        font-family: "Virgil";
        src: url("https://excalidraw.com/Virgil.woff2");
      }
      @font-face {
        font-family: "Cascadia";
        src: url("https://excalidraw.com/Cascadia.woff2");
      }
      @font-face {
        font-family: "Assistant";
        src: url("https://excalidraw.com/Assistant-Regular.woff2");
      }
    </style>
    
  </defs>
  <rect x="0" y="0" width="1140" height="507.9660744597944" fill="#ffffff"/><g stroke-linecap="round" transform="translate(10 10) rotate(0 560 230)"><path d="M0 0 C262.51 0, 525.01 0, 1120 0 M0 0 C353.49 0, 706.98 0, 1120 0 M1120 0 C1120 161.75, 1120 323.5, 1120 460 M1120 0 C1120 134.58, 1120 269.15, 1120 460 M1120 460 C878.29 460, 636.58 460, 0 460 M1120 460 C718.17 460, 316.35 460, 0 460 M0 460 C0 330.52, 0 201.05, 0 0 M0 460 C0 333.7, 0 207.4, 0 0" stroke="#1e1e1e" stroke-width="0.5" fill="none"/></g><g stroke-linecap="round" transform="translate(30 30) rotate(0 540 20)"><path d="M0 0 L1080 0 L1080 40 L0 40" stroke="none" stroke-width="0" fill="#ffec99"/><path d="M0 0 C357.74 0, 715.47 0, 1080 0 M0 0 C403.87 0, 807.75 0, 1080 0 M1080 0 C1080 15.82, 1080 31.64, 1080 40 M1080 0 C1080 11.54, 1080 23.08, 1080 40 M1080 40 C716.12 40, 352.25 40, 0 40 M1080 40 C842.87 40, 605.74 40, 0 40 M0 40 C0 27.23, 0 14.46, 0 0 M0 40 C0 27.64, 0 15.29, 0 0" stroke="#1e1e1e" stroke-width="1" fill="none"/></g><g transform="translate(385.8447265625 38.5) rotate(0 184.1552734375 11.5)"><text x="184.1552734375" y="18.400390625" font-family="Helvetica, Segoe UI Emoji" font-size="20px" fill="#1e1e1e" text-anchor="middle" style="white-space: pre;" direction="ltr" dominant-baseline="alphabetic">Monitoring Technologies for Water Assets</text></g><g stroke-linecap="round" transform="translate(30 70) rotate(0 90 190)"><path d="M0 0 C62.45 0, 124.89 0, 180 0 M0 0 C56.51 0, 113.02 0, 180 0 M180 0 C180 76.34, 180 152.69, 180 380 M180 0 C180 138.06, 180 276.13, 180 380 M180 380 C110.24 380, 40.49 380, 0 380 M180 380 C141.49 380, 102.98 380, 0 380 M0 380 C0 256.9, 0 133.8, 0 0 M0 380 C0 267.49, 0 154.99, 0 0" stroke="#1e1e1e" stroke-width="1" fill="none"/></g><g transform="translate(49.248046875 248.5) rotate(0 70.751953125 11.5)"><text x="70.751953125" y="18.400390625" font-family="Helvetica, Segoe UI Emoji" font-size="20px" fill="#1e1e1e" text-anchor="middle" style="white-space: pre;" direction="ltr" dominant-baseline="alphabetic">Near-Real-Time</text></g><g stroke-linecap="round" transform="translate(210 70) rotate(0 450 190)"><path d="M0 0 C251.93 0, 503.87 0, 900 0 M0 0 C204.88 0, 409.76 0, 900 0 M900 0 C900 125.78, 900 251.55, 900 380 M900 0 C900 122.8, 900 245.6, 900 380 M900 380 C564.3 380, 228.61 380, 0 380 M900 380 C622.25 380, 344.5 380, 0 380 M0 380 C0 285.62, 0 191.24, 0 0 M0 380 C0 269.42, 0 158.84, 0 0" stroke="#1e1e1e" stroke-width="1" fill="none"/></g><g transform="translate(690 90) rotate(0 198.9794921875 172.5)"><text x="0" y="18.400390625" font-family="Helvetica, Segoe UI Emoji" font-size="20px" fill="#1e1e1e" text-anchor="start" style="white-space: pre;" direction="ltr" dominant-baseline="alphabetic">- Acoustic Emission Testing (AET)</text><text x="0" y="41.400390625" font-family="Helvetica, Segoe UI Emoji" font-size="20px" fill="#1e1e1e" text-anchor="start" style="white-space: pre;" direction="ltr" dominant-baseline="alphabetic"/><text x="0" y="64.400390625" font-family="Helvetica, Segoe UI Emoji" font-size="20px" fill="#1e1e1e" text-anchor="start" style="white-space: pre;" direction="ltr" dominant-baseline="alphabetic">- Guided Wave Ultrasonics (GWU)</text><text x="0" y="87.400390625" font-family="Helvetica, Segoe UI Emoji" font-size="20px" fill="#1e1e1e" text-anchor="start" style="white-space: pre;" direction="ltr" dominant-baseline="alphabetic"/><text x="0" y="110.400390625" font-family="Helvetica, Segoe UI Emoji" font-size="20px" fill="#1e1e1e" text-anchor="start" style="white-space: pre;" direction="ltr" dominant-baseline="alphabetic">- Negative Pressure Waves (NPW)</text><text x="0" y="133.400390625" font-family="Helvetica, Segoe UI Emoji" font-size="20px" fill="#1e1e1e" text-anchor="start" style="white-space: pre;" direction="ltr" dominant-baseline="alphabetic"/><text x="0" y="156.400390625" font-family="Helvetica, Segoe UI Emoji" font-size="20px" fill="#1e1e1e" text-anchor="start" style="white-space: pre;" direction="ltr" dominant-baseline="alphabetic">- Transient Pressure Monitoring</text><text x="0" y="179.400390625" font-family="Helvetica, Segoe UI Emoji" font-size="20px" fill="#1e1e1e" text-anchor="start" style="white-space: pre;" direction="ltr" dominant-baseline="alphabetic"/><text x="0" y="202.400390625" font-family="Helvetica, Segoe UI Emoji" font-size="20px" fill="#1e1e1e" text-anchor="start" style="white-space: pre;" direction="ltr" dominant-baseline="alphabetic">- Corrosion Measurement</text><text x="0" y="225.400390625" font-family="Helvetica, Segoe UI Emoji" font-size="20px" fill="#1e1e1e" text-anchor="start" style="white-space: pre;" direction="ltr" dominant-baseline="alphabetic"/><text x="0" y="248.400390625" font-family="Helvetica, Segoe UI Emoji" font-size="20px" fill="#1e1e1e" text-anchor="start" style="white-space: pre;" direction="ltr" dominant-baseline="alphabetic">- Smart Instrumented Fasteners and Flanges</text><text x="0" y="271.400390625" font-family="Helvetica, Segoe UI Emoji" font-size="20px" fill="#1e1e1e" text-anchor="start" style="white-space: pre;" direction="ltr" dominant-baseline="alphabetic"/><text x="0" y="294.400390625" font-family="Helvetica, Segoe UI Emoji" font-size="20px" fill="#1e1e1e" text-anchor="start" style="white-space: pre;" direction="ltr" dominant-baseline="alphabetic">- Smart Self-Sensory Materials</text><text x="0" y="317.400390625" font-family="Helvetica, Segoe UI Emoji" font-size="20px" fill="#1e1e1e" text-anchor="start" style="white-space: pre;" direction="ltr" dominant-baseline="alphabetic"/><text x="0" y="340.400390625" font-family="Helvetica, Segoe UI Emoji" font-size="20px" fill="#1e1e1e" text-anchor="start" style="white-space: pre;" direction="ltr" dominant-baseline="alphabetic">- Other technologies </text></g><a href="obsidian://open?vault=Obsidian_DC&amp;file=zUnsorted%2FRaman%20scattering"><g transform="translate(230 135) rotate(0 109.4921875 57.5)"><text x="0" y="18.400390625" font-family="Helvetica, Segoe UI Emoji" font-size="20px" fill="#1971c2" text-anchor="start" style="white-space: pre;" direction="ltr" dominant-baseline="alphabetic"/><text x="0" y="41.400390625" font-family="Helvetica, Segoe UI Emoji" font-size="20px" fill="#1971c2" text-anchor="start" style="white-space: pre;" direction="ltr" dominant-baseline="alphabetic">      - Raman Scattering</text><text x="0" y="64.400390625" font-family="Helvetica, Segoe UI Emoji" font-size="20px" fill="#1971c2" text-anchor="start" style="white-space: pre;" direction="ltr" dominant-baseline="alphabetic">      - Brillouin Scattering</text><text x="0" y="87.400390625" font-family="Helvetica, Segoe UI Emoji" font-size="20px" fill="#1971c2" text-anchor="start" style="white-space: pre;" direction="ltr" dominant-baseline="alphabetic">      - Rayleigh Scattering</text><text x="0" y="110.400390625" font-family="Helvetica, Segoe UI Emoji" font-size="20px" fill="#1971c2" text-anchor="start" style="white-space: pre;" direction="ltr" dominant-baseline="alphabetic"/></g></a><g transform="translate(230 90) rotate(0 124.4677734375 34.5)"><text x="0" y="18.400390625" font-family="Helvetica, Segoe UI Emoji" font-size="20px" fill="#1e1e1e" text-anchor="start" style="white-space: pre;" direction="ltr" dominant-baseline="alphabetic">- Fiber Optic Sensors (FOS)</text><text x="0" y="41.400390625" font-family="Helvetica, Segoe UI Emoji" font-size="20px" fill="#1e1e1e" text-anchor="start" style="white-space: pre;" direction="ltr" dominant-baseline="alphabetic"> </text><text x="0" y="64.400390625" font-family="Helvetica, Segoe UI Emoji" font-size="20px" fill="#1e1e1e" text-anchor="start" style="white-space: pre;" direction="ltr" dominant-baseline="alphabetic"/></g><a href="obsidian://open?vault=Obsidian_DC&amp;file=5.00%20Content%20Buckets%2F5.20%20Condition%20Assessment%20and%20Monitoring%2FDistributed%20Fiber%20Optic%20Sensing%20(DFOS)"><g transform="translate(230 103) rotate(0 190.0537109375 23)"><text x="0" y="18.400390625" font-family="Helvetica, Segoe UI Emoji" font-size="20px" fill="#1e672b" text-anchor="start" style="white-space: pre;" direction="ltr" dominant-baseline="alphabetic"/><text x="0" y="41.400390625" font-family="Helvetica, Segoe UI Emoji" font-size="20px" fill="#1e672b" text-anchor="start" style="white-space: pre;" direction="ltr" dominant-baseline="alphabetic">   - Distributed Fiber Optic Sensing (DFOS)</text></g></a><a href="obsidian://open?vault=Obsidian_DC&amp;file=5.00%20Content%20Buckets%2F5.20%20Condition%20Assessment%20and%20Monitoring%2FFiber%20Bragg%20Grating%20Sensors%20(FBG)"><g transform="translate(230 215) rotate(0 171.71875 34.5)"><text x="0" y="18.400390625" font-family="Helvetica, Segoe UI Emoji" font-size="20px" fill="#1e672b" text-anchor="start" style="white-space: pre;" direction="ltr" dominant-baseline="alphabetic"/><text x="0" y="41.400390625" font-family="Helvetica, Segoe UI Emoji" font-size="20px" fill="#1e672b" text-anchor="start" style="white-space: pre;" direction="ltr" dominant-baseline="alphabetic">   - Fiber Bragg Grating Sensors (FBG)</text><text x="0" y="64.400390625" font-family="Helvetica, Segoe UI Emoji" font-size="20px" fill="#1e672b" text-anchor="start" style="white-space: pre;" direction="ltr" dominant-baseline="alphabetic"/></g></a><a href="obsidian://open?vault=Obsidian_DC&amp;file=5.00%20Content%20Buckets%2F5.20%20Condition%20Assessment%20and%20Monitoring%2FInterferometric%20Fiber%20Optic%20Sensors%20(IFOS)"><g transform="translate(230 255) rotate(0 202.822265625 34.5)"><text x="0" y="18.400390625" font-family="Helvetica, Segoe UI Emoji" font-size="20px" fill="#1e672b" text-anchor="start" style="white-space: pre;" direction="ltr" dominant-baseline="alphabetic"/><text x="0" y="41.400390625" font-family="Helvetica, Segoe UI Emoji" font-size="20px" fill="#1e672b" text-anchor="start" style="white-space: pre;" direction="ltr" dominant-baseline="alphabetic">   - Interferometric Fiber Optic Sensors (IFOS)</text><text x="0" y="64.400390625" font-family="Helvetica, Segoe UI Emoji" font-size="20px" fill="#1e672b" text-anchor="start" style="white-space: pre;" direction="ltr" dominant-baseline="alphabetic"/></g></a><g transform="translate(230 287) rotate(0 117.2412109375 69)"><text x="0" y="18.400390625" font-family="Helvetica, Segoe UI Emoji" font-size="20px" fill="#1971c2" text-anchor="start" style="white-space: pre;" direction="ltr" dominant-baseline="alphabetic"/><text x="0" y="41.400390625" font-family="Helvetica, Segoe UI Emoji" font-size="20px" fill="#1971c2" text-anchor="start" style="white-space: pre;" direction="ltr" dominant-baseline="alphabetic">      - Mach-Zehnder (MZI) </text><text x="0" y="64.400390625" font-family="Helvetica, Segoe UI Emoji" font-size="20px" fill="#1971c2" text-anchor="start" style="white-space: pre;" direction="ltr" dominant-baseline="alphabetic">      - Michelson (MI)</text><text x="0" y="87.400390625" font-family="Helvetica, Segoe UI Emoji" font-size="20px" fill="#1971c2" text-anchor="start" style="white-space: pre;" direction="ltr" dominant-baseline="alphabetic">      - Fabry-Perot (FPI)</text><text x="0" y="110.400390625" font-family="Helvetica, Segoe UI Emoji" font-size="20px" fill="#1971c2" text-anchor="start" style="white-space: pre;" direction="ltr" dominant-baseline="alphabetic">      - Sagnac Fiber (SFI)</text><text x="0" y="133.400390625" font-family="Helvetica, Segoe UI Emoji" font-size="20px" fill="#1971c2" text-anchor="start" style="white-space: pre;" direction="ltr" dominant-baseline="alphabetic"/></g><g transform="translate(1035.455906080163 482.36147673233677) rotate(0 36.000328063964844 7.802298863728822)"><text x="0" y="12.483943205704687" font-family="Helvetica, Segoe UI Emoji" font-size="13.569215415180555px" fill="#1e1e1e" text-anchor="start" style="white-space: pre;" direction="ltr" dominant-baseline="alphabetic">(Own Work)</text></g></svg>