<svg version="1.1" xmlns="http://www.w3.org/2000/svg" viewBox="0 0 1140 460.60459772745764" width="1140" height="460.60459772745764" class="excalidraw-svg">
  <!-- svg-source:excalidraw -->
  
  <defs>
    <style class="style-fonts">
      @font-face {
        font-family: "Virgil";
        src: url("https://excalidraw.com/Virgil.woff2");
      }
      @font-face {
        font-family: "Cascadia";
        src: url("https://excalidraw.com/Cascadia.woff2");
      }
      @font-face {
        font-family: "Assistant";
        src: url("https://excalidraw.com/Assistant-Regular.woff2");
      }
    </style>
    
  </defs>
  <rect x="0" y="0" width="1140" height="460.60459772745764" fill="#ffffff"/><g transform="translate(1030 435) rotate(0 36.000328063964844 7.802298863728822)"><text x="0" y="12.483943205704687" font-family="Helvetica, Segoe UI Emoji" font-size="13.569215415180555px" fill="#1e1e1e" text-anchor="start" style="white-space: pre;" direction="ltr" dominant-baseline="alphabetic">(Own Work)</text></g><g stroke-linecap="round" transform="translate(10 10) rotate(0 560 210)"><path d="M0 0 C262.51 0, 525.01 0, 1120 0 M0 0 C353.49 0, 706.98 0, 1120 0 M1120 0 C1120 147.68, 1120 295.37, 1120 420 M1120 0 C1120 122.87, 1120 245.75, 1120 420 M1120 420 C878.29 420, 636.58 420, 0 420 M1120 420 C718.17 420, 316.35 420, 0 420 M0 420 C0 301.78, 0 183.57, 0 0 M0 420 C0 304.68, 0 189.36, 0 0" stroke="#1e1e1e" stroke-width="0.5" fill="none"/></g><g stroke-linecap="round" transform="translate(30 30) rotate(0 540 20)"><path d="M0 0 L1080 0 L1080 40 L0 40" stroke="none" stroke-width="0" fill="#ffec99"/><path d="M0 0 C357.74 0, 715.47 0, 1080 0 M0 0 C403.87 0, 807.75 0, 1080 0 M1080 0 C1080 15.82, 1080 31.64, 1080 40 M1080 0 C1080 11.54, 1080 23.08, 1080 40 M1080 40 C716.12 40, 352.25 40, 0 40 M1080 40 C842.87 40, 605.74 40, 0 40 M0 40 C0 27.23, 0 14.46, 0 0 M0 40 C0 27.64, 0 15.29, 0 0" stroke="#1e1e1e" stroke-width="1" fill="none"/></g><g transform="translate(385.8447265625 38.5) rotate(0 184.1552734375 11.5)"><text x="184.1552734375" y="18.400390625" font-family="Helvetica, Segoe UI Emoji" font-size="20px" fill="#1e1e1e" text-anchor="middle" style="white-space: pre;" direction="ltr" dominant-baseline="alphabetic">Monitoring Technologies for Water Assets</text></g><g stroke-linecap="round" transform="translate(30 70) rotate(0 90 170)"><path d="M0 0 C62.45 0, 124.89 0, 180 0 M0 0 C56.51 0, 113.02 0, 180 0 M180 0 C180 68.31, 180 136.62, 180 340 M180 0 C180 123.53, 180 247.06, 180 340 M180 340 C110.24 340, 40.49 340, 0 340 M180 340 C141.49 340, 102.98 340, 0 340 M0 340 C0 229.86, 0 119.71, 0 0 M0 340 C0 239.34, 0 138.67, 0 0" stroke="#1e1e1e" stroke-width="1" fill="none"/></g><g transform="translate(83.8720703125 228.5) rotate(0 36.1279296875 11.5)"><text x="36.1279296875" y="18.400390625" font-family="Helvetica, Segoe UI Emoji" font-size="20px" fill="#1e1e1e" text-anchor="middle" style="white-space: pre;" direction="ltr" dominant-baseline="alphabetic">Periodic</text></g><g stroke-linecap="round" transform="translate(210 70) rotate(0 450 170)"><path d="M0 0 C251.93 0, 503.87 0, 900 0 M0 0 C204.88 0, 409.76 0, 900 0 M900 0 C900 112.54, 900 225.07, 900 340 M900 0 C900 109.87, 900 219.75, 900 340 M900 340 C564.3 340, 228.61 340, 0 340 M900 340 C622.25 340, 344.5 340, 0 340 M0 340 C0 255.55, 0 171.11, 0 0 M0 340 C0 241.06, 0 142.12, 0 0" stroke="#1e1e1e" stroke-width="1" fill="none"/></g><g transform="translate(230 90) rotate(0 187.2900390625 126.5)"><text x="0" y="18.400390625" font-family="Helvetica, Segoe UI Emoji" font-size="20px" fill="#1e1e1e" text-anchor="start" style="white-space: pre;" direction="ltr" dominant-baseline="alphabetic">- Vibro-Acoustic Monitoring</text><text x="0" y="41.400390625" font-family="Helvetica, Segoe UI Emoji" font-size="20px" fill="#1e1e1e" text-anchor="start" style="white-space: pre;" direction="ltr" dominant-baseline="alphabetic"/><text x="0" y="64.400390625" font-family="Helvetica, Segoe UI Emoji" font-size="20px" fill="#1e1e1e" text-anchor="start" style="white-space: pre;" direction="ltr" dominant-baseline="alphabetic">- Acoustic Pipe Wall Assessment</text><text x="0" y="87.400390625" font-family="Helvetica, Segoe UI Emoji" font-size="20px" fill="#1e1e1e" text-anchor="start" style="white-space: pre;" direction="ltr" dominant-baseline="alphabetic"/><text x="0" y="110.400390625" font-family="Helvetica, Segoe UI Emoji" font-size="20px" fill="#1e1e1e" text-anchor="start" style="white-space: pre;" direction="ltr" dominant-baseline="alphabetic">- Advanced Meter Infrastructure (AMI)</text><text x="0" y="133.400390625" font-family="Helvetica, Segoe UI Emoji" font-size="20px" fill="#1e1e1e" text-anchor="start" style="white-space: pre;" direction="ltr" dominant-baseline="alphabetic"/><text x="0" y="156.400390625" font-family="Helvetica, Segoe UI Emoji" font-size="20px" fill="#1e1e1e" text-anchor="start" style="white-space: pre;" direction="ltr" dominant-baseline="alphabetic">- Geospatial Remote Sensing</text><text x="0" y="179.400390625" font-family="Helvetica, Segoe UI Emoji" font-size="20px" fill="#1e1e1e" text-anchor="start" style="white-space: pre;" direction="ltr" dominant-baseline="alphabetic"/><text x="0" y="202.400390625" font-family="Helvetica, Segoe UI Emoji" font-size="20px" fill="#1e1e1e" text-anchor="start" style="white-space: pre;" direction="ltr" dominant-baseline="alphabetic">- Remote Field Technology</text><text x="0" y="225.400390625" font-family="Helvetica, Segoe UI Emoji" font-size="20px" fill="#1e1e1e" text-anchor="start" style="white-space: pre;" direction="ltr" dominant-baseline="alphabetic"/><text x="0" y="248.400390625" font-family="Helvetica, Segoe UI Emoji" font-size="20px" fill="#1e1e1e" text-anchor="start" style="white-space: pre;" direction="ltr" dominant-baseline="alphabetic">- Ultrasonic Methods (Discrete and In-line)</text></g><g transform="translate(650 90) rotate(0 203.0224609375 149.5)"><text x="0" y="18.400390625" font-family="Helvetica, Segoe UI Emoji" font-size="20px" fill="#1e1e1e" text-anchor="start" style="white-space: pre;" direction="ltr" dominant-baseline="alphabetic">- Electromagnetic Surface Wave</text><text x="0" y="41.400390625" font-family="Helvetica, Segoe UI Emoji" font-size="20px" fill="#1e1e1e" text-anchor="start" style="white-space: pre;" direction="ltr" dominant-baseline="alphabetic"/><text x="0" y="64.400390625" font-family="Helvetica, Segoe UI Emoji" font-size="20px" fill="#1e1e1e" text-anchor="start" style="white-space: pre;" direction="ltr" dominant-baseline="alphabetic">- Impact Echo (IE)</text><text x="0" y="87.400390625" font-family="Helvetica, Segoe UI Emoji" font-size="20px" fill="#1e1e1e" text-anchor="start" style="white-space: pre;" direction="ltr" dominant-baseline="alphabetic"/><text x="0" y="110.400390625" font-family="Helvetica, Segoe UI Emoji" font-size="20px" fill="#1e1e1e" text-anchor="start" style="white-space: pre;" direction="ltr" dominant-baseline="alphabetic">- Spectral Analysis of Surface Waves (SASW)</text><text x="0" y="133.400390625" font-family="Helvetica, Segoe UI Emoji" font-size="20px" fill="#1e1e1e" text-anchor="start" style="white-space: pre;" direction="ltr" dominant-baseline="alphabetic"/><text x="0" y="156.400390625" font-family="Helvetica, Segoe UI Emoji" font-size="20px" fill="#1e1e1e" text-anchor="start" style="white-space: pre;" direction="ltr" dominant-baseline="alphabetic">- Electrical Tomography (ET)</text><text x="0" y="179.400390625" font-family="Helvetica, Segoe UI Emoji" font-size="20px" fill="#1e1e1e" text-anchor="start" style="white-space: pre;" direction="ltr" dominant-baseline="alphabetic"/><text x="0" y="202.400390625" font-family="Helvetica, Segoe UI Emoji" font-size="20px" fill="#1e1e1e" text-anchor="start" style="white-space: pre;" direction="ltr" dominant-baseline="alphabetic">- Stress Concentration Tomography (SCT)</text><text x="0" y="225.400390625" font-family="Helvetica, Segoe UI Emoji" font-size="20px" fill="#1e1e1e" text-anchor="start" style="white-space: pre;" direction="ltr" dominant-baseline="alphabetic"/><text x="0" y="248.400390625" font-family="Helvetica, Segoe UI Emoji" font-size="20px" fill="#1e1e1e" text-anchor="start" style="white-space: pre;" direction="ltr" dominant-baseline="alphabetic">- Pulse Eddy Current (PEC) Systems</text><text x="0" y="271.400390625" font-family="Helvetica, Segoe UI Emoji" font-size="20px" fill="#1e1e1e" text-anchor="start" style="white-space: pre;" direction="ltr" dominant-baseline="alphabetic"/><text x="0" y="294.400390625" font-family="Helvetica, Segoe UI Emoji" font-size="20px" fill="#1e1e1e" text-anchor="start" style="white-space: pre;" direction="ltr" dominant-baseline="alphabetic">- Other Technologies</text></g></svg>