<svg version="1.1" xmlns="http://www.w3.org/2000/svg" viewBox="0 0 1140 361.48609399104464" width="1140" height="361.48609399104464" class="excalidraw-svg">
  <!-- svg-source:excalidraw -->
  
  <defs>
    <style class="style-fonts">
      @font-face {
        font-family: "Virgil";
        src: url("https://excalidraw.com/Virgil.woff2");
      }
      @font-face {
        font-family: "Cascadia";
        src: url("https://excalidraw.com/Cascadia.woff2");
      }
      @font-face {
        font-family: "Assistant";
        src: url("https://excalidraw.com/Assistant-Regular.woff2");
      }
    </style>
    
  </defs>
  <rect x="0" y="0" width="1140" height="361.48609399104464" fill="#ffffff"/><g transform="translate(1049.641750169837 335.881496263587) rotate(0 36.000328063964844 7.802298863728822)"><text x="0" y="12.483943205704687" font-family="Helvetica, Segoe UI Emoji" font-size="13.569215415180555px" fill="#1e1e1e" text-anchor="start" style="white-space: pre;" direction="ltr" dominant-baseline="alphabetic">(Own Work)</text></g><g stroke-linecap="round" transform="translate(10 10) rotate(0 560 160)"><path d="M0 0 C262.51 0, 525.01 0, 1120 0 M0 0 C353.49 0, 706.98 0, 1120 0 M1120 0 C1120 112.52, 1120 225.04, 1120 320 M1120 0 C1120 93.62, 1120 187.24, 1120 320 M1120 320 C878.29 320, 636.58 320, 0 320 M1120 320 C718.17 320, 316.35 320, 0 320 M0 320 C0 229.93, 0 139.86, 0 0 M0 320 C0 232.14, 0 144.28, 0 0" stroke="#1e1e1e" stroke-width="0.5" fill="none"/></g><g stroke-linecap="round" transform="translate(30 30) rotate(0 540 20)"><path d="M0 0 L1080 0 L1080 40 L0 40" stroke="none" stroke-width="0" fill="#ffec99"/><path d="M0 0 C357.74 0, 715.47 0, 1080 0 M0 0 C403.87 0, 807.75 0, 1080 0 M1080 0 C1080 15.82, 1080 31.64, 1080 40 M1080 0 C1080 11.54, 1080 23.08, 1080 40 M1080 40 C716.12 40, 352.25 40, 0 40 M1080 40 C842.87 40, 605.74 40, 0 40 M0 40 C0 27.23, 0 14.46, 0 0 M0 40 C0 27.64, 0 15.29, 0 0" stroke="#1e1e1e" stroke-width="1" fill="none"/></g><g transform="translate(385.8447265625 38.5) rotate(0 184.1552734375 11.5)"><text x="184.1552734375" y="18.400390625" font-family="Helvetica, Segoe UI Emoji" font-size="20px" fill="#1e1e1e" text-anchor="middle" style="white-space: pre;" direction="ltr" dominant-baseline="alphabetic">Monitoring Technologies for Water Assets</text></g><g stroke-linecap="round" transform="translate(30 70) rotate(0 90 120)"><path d="M0 0 C62.45 0, 124.89 0, 180 0 M0 0 C56.51 0, 113.02 0, 180 0 M180 0 C180 48.22, 180 96.44, 180 240 M180 0 C180 87.2, 180 174.4, 180 240 M180 240 C110.24 240, 40.49 240, 0 240 M180 240 C141.49 240, 102.98 240, 0 240 M0 240 C0 162.25, 0 84.5, 0 0 M0 240 C0 168.94, 0 97.89, 0 0" stroke="#1e1e1e" stroke-width="1" fill="none"/></g><g transform="translate(69.970703125 178.5) rotate(0 50.029296875 11.5)"><text x="50.029296875" y="18.400390625" font-family="Helvetica, Segoe UI Emoji" font-size="20px" fill="#1e1e1e" text-anchor="middle" style="white-space: pre;" direction="ltr" dominant-baseline="alphabetic">As-Needed</text></g><g stroke-linecap="round" transform="translate(210 70) rotate(0 450 120)"><path d="M0 0 C251.93 0, 503.87 0, 900 0 M0 0 C204.88 0, 409.76 0, 900 0 M900 0 C900 79.44, 900 158.87, 900 240 M900 0 C900 77.56, 900 155.12, 900 240 M900 240 C564.3 240, 228.61 240, 0 240 M900 240 C622.25 240, 344.5 240, 0 240 M0 240 C0 180.39, 0 120.78, 0 0 M0 240 C0 170.16, 0 100.32, 0 0" stroke="#1e1e1e" stroke-width="1" fill="none"/></g><g transform="translate(230 90) rotate(0 154.51171875 115)"><text x="0" y="18.400390625" font-family="Helvetica, Segoe UI Emoji" font-size="20px" fill="#1e1e1e" text-anchor="start" style="white-space: pre;" direction="ltr" dominant-baseline="alphabetic">- Low Voltage Conductivity</text><text x="0" y="41.400390625" font-family="Helvetica, Segoe UI Emoji" font-size="20px" fill="#1e1e1e" text-anchor="start" style="white-space: pre;" direction="ltr" dominant-baseline="alphabetic"/><text x="0" y="64.400390625" font-family="Helvetica, Segoe UI Emoji" font-size="20px" fill="#1e1e1e" text-anchor="start" style="white-space: pre;" direction="ltr" dominant-baseline="alphabetic">- Flow Traveling Sensors</text><text x="0" y="87.400390625" font-family="Helvetica, Segoe UI Emoji" font-size="20px" fill="#1e1e1e" text-anchor="start" style="white-space: pre;" direction="ltr" dominant-baseline="alphabetic"/><text x="0" y="110.400390625" font-family="Helvetica, Segoe UI Emoji" font-size="20px" fill="#1e1e1e" text-anchor="start" style="white-space: pre;" direction="ltr" dominant-baseline="alphabetic">- Internal Visual Inspections</text><text x="0" y="133.400390625" font-family="Helvetica, Segoe UI Emoji" font-size="20px" fill="#1e1e1e" text-anchor="start" style="white-space: pre;" direction="ltr" dominant-baseline="alphabetic"/><text x="0" y="156.400390625" font-family="Helvetica, Segoe UI Emoji" font-size="20px" fill="#1e1e1e" text-anchor="start" style="white-space: pre;" direction="ltr" dominant-baseline="alphabetic">- Infrared (IR) Thermography</text><text x="0" y="179.400390625" font-family="Helvetica, Segoe UI Emoji" font-size="20px" fill="#1e1e1e" text-anchor="start" style="white-space: pre;" direction="ltr" dominant-baseline="alphabetic"/><text x="0" y="202.400390625" font-family="Helvetica, Segoe UI Emoji" font-size="20px" fill="#1e1e1e" text-anchor="start" style="white-space: pre;" direction="ltr" dominant-baseline="alphabetic">- Ground Penetrating Radar (GPR)</text><text x="0" y="225.400390625" font-family="Helvetica, Segoe UI Emoji" font-size="20px" fill="#1e1e1e" text-anchor="start" style="white-space: pre;" direction="ltr" dominant-baseline="alphabetic"/></g><g transform="translate(650 90) rotate(0 192.3046875 80.5)"><text x="0" y="18.400390625" font-family="Helvetica, Segoe UI Emoji" font-size="20px" fill="#1e1e1e" text-anchor="start" style="white-space: pre;" direction="ltr" dominant-baseline="alphabetic">- Chemical Composition Detection Methods</text><text x="0" y="41.400390625" font-family="Helvetica, Segoe UI Emoji" font-size="20px" fill="#1e1e1e" text-anchor="start" style="white-space: pre;" direction="ltr" dominant-baseline="alphabetic"/><text x="0" y="64.400390625" font-family="Helvetica, Segoe UI Emoji" font-size="20px" fill="#1e1e1e" text-anchor="start" style="white-space: pre;" direction="ltr" dominant-baseline="alphabetic">- Light Detection and Ranging (LiDAR)</text><text x="0" y="87.400390625" font-family="Helvetica, Segoe UI Emoji" font-size="20px" fill="#1e1e1e" text-anchor="start" style="white-space: pre;" direction="ltr" dominant-baseline="alphabetic"/><text x="0" y="110.400390625" font-family="Helvetica, Segoe UI Emoji" font-size="20px" fill="#1e1e1e" text-anchor="start" style="white-space: pre;" direction="ltr" dominant-baseline="alphabetic">- Non-Contact Acoustic Inspections</text><text x="0" y="133.400390625" font-family="Helvetica, Segoe UI Emoji" font-size="20px" fill="#1e1e1e" text-anchor="start" style="white-space: pre;" direction="ltr" dominant-baseline="alphabetic"/><text x="0" y="156.400390625" font-family="Helvetica, Segoe UI Emoji" font-size="20px" fill="#1e1e1e" text-anchor="start" style="white-space: pre;" direction="ltr" dominant-baseline="alphabetic">- Other Technologies</text></g></svg>